<?xml version="1.0" standalone="no"?>
<!DOCTYPE svg PUBLIC "-//W3C//DTD SVG 1.1//EN" "http://www.w3.org/Graphics/SVG/1.1/DTD/svg11.dtd">
<svg xmlns="http://www.w3.org/2000/svg">
<metadata>Copyright (C) 2017 by original authors @ fontello.com</metadata>
<defs>
<font id="fontello" horiz-adv-x="1000" >
<font-face font-family="fontello" font-weight="400" font-stretch="normal" units-per-em="1000" ascent="850" descent="-150" />
<missing-glyph horiz-adv-x="1000" />
<glyph glyph-name="placeholder-(2)" unicode="&#xe800;" d="M431 844c-140-25-250-140-275-280-25-134 30-259 125-334 95-80 165-185 200-305l20-75 25 75c35 125 114 230 209 315 70 60 115 155 115 259 0 215-195 385-419 345z m70-544c-110 0-200 90-200 199s90 200 200 200 199-90 199-200-90-199-199-199z" horiz-adv-x="1000" />

<glyph glyph-name="back-1" unicode="&#xe801;" d="M962 810c-23 0-39-16-39-38v-460c0-62-53-115-115-115h-674l161 161c15 15 15 38 0 53-15 16-38 16-54 0l-229-230c-16-15-16-38 0-53l229-230c8-8 23-8 31-8s23 0 23 16c15 15 15 38 0 53l-161 161h674c108 0 192 84 192 192v460c0 22-15 38-38 38z" horiz-adv-x="1000" />

<glyph glyph-name="back-2" unicode="&#xe802;" d="M372 272c-46 45-46 114 0 160l352 353c16 15 16 38 0 54s-38 15-53 0l-353-353c-31-38-54-84-54-138s16-99 54-138l353-352c7-8 23-8 30-8 8 0 23 0 23 15 16 16 16 39 0 54l-352 353z" horiz-adv-x="1000" />

<glyph glyph-name="back-3" unicode="&#xe803;" d="M800 850c-27 0-54 0-82-18l-582-340v313c0 27-18 45-45 45s-45-18-45-45v-910c0-27 18-45 45-45s45 18 45 45v323l582-341c28-9 55-18 82-18 82 0 155 64 155 155v682c0 81-64 154-155 154z m64-845c0-55-64-73-100-55l-591 346c-27 9-37 36-37 54s19 46 37 55l591 345c18 9 27 9 36 9 27 0 64-27 64-73v-681z" horiz-adv-x="1000" />

<glyph glyph-name="calendar" unicode="&#xe809;" d="M844 756h-125v32c0 18-13 31-31 31s-32-13-32-31v-32h-312v32c0 18-13 31-31 31-19 0-32-13-32-31v-32h-125c-87 0-156-68-156-156v-562c0-88 69-157 156-157h688c87 0 156 69 156 157v562c0 88-69 156-156 156z m-781-156c0 50 43 94 93 94h125v-31c0-19 13-32 32-32 18 0 31 13 31 32v31h312v-31c0-19 13-32 32-32s31 13 31 32v31h125c50 0 94-44 94-94v-94h-875v94z m875-562c0-51-44-94-94-94h-688c-50 0-93 43-93 94v406h875v-406z m-719 0c19 0 31 6 44 18 12 13 18 32 18 44s-6 31-18 44c-25 25-63 25-88 0-12-13-19-25-19-44 0-12 7-31 19-44s25-18 44-18z m0 187c19 0 31 6 44 19s18 31 18 44-6 31-18 43c-25 25-63 25-88 0-12-12-19-25-19-43 0-19 7-32 19-44s25-19 44-19z m187-187c19 0 32 6 44 18 13 13 19 32 19 44s-6 31-19 44c-25 25-62 25-87 0-13-13-19-31-19-44s6-31 19-44c12-12 25-18 43-18z m0 187c19 0 32 6 44 19 13 12 19 31 19 44s-6 31-19 43c-25 25-62 25-87 0-13-12-19-31-19-43s6-32 19-44c12-13 25-19 43-19z m188-187c19 0 31 6 44 18 12 13 18 25 18 44 0 19-6 31-18 44-25 25-63 25-88 0-12-13-19-31-19-44s7-31 19-44 25-18 44-18z m0 187c19 0 31 6 44 19s18 25 18 44c0 12-6 31-18 43-25 25-63 25-88 0-12-12-19-31-19-43s7-32 19-44 25-19 44-19z m187-187c19 0 32 6 44 18 13 13 19 32 19 44s-6 31-19 44c-25 25-62 25-87 0-13-13-19-25-19-44 0-12 6-31 19-44 12-12 25-18 43-18z m0 187c19 0 32 6 44 19s19 25 19 44c0 12-6 31-19 43-25 25-62 25-87 0-13-12-19-31-19-43s6-32 19-44c12-13 25-19 43-19z" horiz-adv-x="1000" />

<glyph glyph-name="clock" unicode="&#xe80b;" d="M500 850c-276 0-500-223-500-500s224-500 500-500 500 224 500 500-223 500-500 500z m29-940v87c0 18-11 30-29 30-18 0-29-12-29-30v-87c-218 15-396 193-411 411h87c18 0 30 11 30 29 0 18-12 29-30 29h-87c15 218 193 396 411 411v-87c0-18 11-29 29-29 18 0 29 11 29 29v87c218-15 396-193 411-411h-87c-18 0-29-11-29-29 0-18 11-29 29-29h87c-15-218-193-396-411-411z m89 469h-83c0 0-6 0-6 6v200c0 18-11 30-29 30-18 0-29-12-29-30v-200c0-35 29-64 64-64h83c17 0 29 11 29 29 0 18-12 29-29 29z" horiz-adv-x="1000" />

<glyph glyph-name="cancel" unicode="&#xe80c;" d="M500 850c-276 0-500-223-500-500s224-500 500-500 500 224 500 500-223 500-500 500z m0-941c-241 0-441 200-441 441s200 441 441 441 441-200 441-441-200-441-441-441z m141 582c-12 12-29 12-41 0l-103-103-103 103c-12 12-29 12-41 0s-12-29 0-41l103-103-103-103c-12-12-12-29 0-41 6-6 18-6 24-6s17 6 17 6l103 103 103-103c6-6 18-6 24-6 5 0 11 6 17 6 12 12 12 29 0 41l-103 103 103 103c12 12 12 29 0 41z" horiz-adv-x="1000" />

<glyph glyph-name="checked-1" unicode="&#xe80e;" d="M989 652c-16 15-39 15-54 0l-493-508c-23-15-53-30-84-30-31 0-62 7-85 30l-208 208c-15 15-38 15-53 0s-16-38 0-54l207-208c39-30 85-53 139-53 54 0 107 23 138 53l493 508c15 16 15 39 0 54z" horiz-adv-x="1000" />

<glyph glyph-name="bell" unicode="&#xe80f;" d="M955 153c0 18-13 30-31 30-48 0-91 43-91 91v122c0 171-135 316-303 331v93c0 18-12 30-30 30s-30-12-30-30v-93c-168-15-303-160-303-331v-122c0-48-43-91-91-91-18 0-31-12-31-30 0-74 124-120 275-140 9-94 83-163 180-163s171 69 180 163c151 20 275 66 275 140z m-455-242c-58 0-107 41-118 95 39-3 79-4 118-4s79 1 118 4c-11-54-60-95-118-95z m0 151c-206 0-327 37-376 67 61 24 103 79 103 145v122c0 151 122 272 273 272s273-121 273-272v-122c0-66 42-127 103-145-49-30-170-67-376-67z" horiz-adv-x="1000" />

<glyph glyph-name="checked" unicode="&#xe811;" d="M500 850c-276 0-500-223-500-500s224-500 500-500 500 224 500 500-223 500-500 500z m0-941c-241 0-441 200-441 441s200 441 441 441 441-200 441-441-200-441-441-441z m124 518l-159-159c0-6-6-6-12-6-6 0-6 0-12 6l-64 64c-12 12-30 12-42 0s-11-29 0-41l65-64c12-18 29-24 53-24 24 0 41 12 53 24l159 158c12 12 12 30 0 42-12 11-30 11-41 0z" horiz-adv-x="1000" />

<glyph glyph-name="cd" unicode="&#xe812;" d="M500 850c-276 0-500-223-500-500s224-500 500-500 500 224 500 500-223 500-500 500z m439-454l-297-10c-16 64-72 111-142 111-30 0-58-9-82-24l-207 208c77 68 179 110 289 110 226 0 415-175 439-395z m-439 42c47 0 88-41 88-88 0-47-41-88-88-88-47 0-88 41-88 88 0 47 41 88 88 88z m-331 201l208-208c-11-17-19-37-22-58l-295-10c3 105 43 201 109 276z m-108-335l297 10c16-64 72-111 142-111 30 0 57 9 79 23l209-208c-78-68-179-109-288-109-226 0-415 175-439 395z m768-245l-207 208c12 17 20 38 23 60l296 10c-4-106-45-203-112-278z" horiz-adv-x="1000" />

<glyph glyph-name="compass-1" unicode="&#xe81b;" d="M981 802c-25 38-81 56-125 38l-786-306c-50-13-75-57-69-106 6-50 37-88 87-94l306-50c19-6 38-19 38-38l50-305c12-50 56-88 106-88 43 0 81 25 100 63l306 786c12 38 6 69-13 100z m-880-399c-25 6-38 25-38 37-6 13 0 37 25 44l787 306c6 0 12 0 19 0l-451-451c-11 7-23 12-36 14l-306 50z m524-456c-6-25-31-25-37-25-19 0-38 12-44 37l-50 306c-1 10-5 20-9 29l448 447c-1-2-1-5-2-8l-306-786z" horiz-adv-x="1000" />

<glyph glyph-name="credit-card" unicode="&#xe81d;" d="M912 703h-824c-47 0-88-41-88-88v-530c0-47 41-88 88-88h824c47 0 88 41 88 88v530c0 47-41 88-88 88z m-824-59h824c17 0 29-12 29-29v-47h-882v47c0 17 12 29 29 29z m853-135v-47h-882v47h882z m-29-453h-824c-17 0-29 12-29 29v318h882v-318c0-17-12-29-29-29z m-759 212h153c18 0 29 11 29 29 0 18-11 30-29 30h-153c-18 0-29-12-29-30 0-18 11-29 29-29z m359-65h-359c-18 0-29-12-29-29s11-30 29-30h359c12 0 29 12 29 30s-12 29-29 29z" horiz-adv-x="1000" />

<glyph glyph-name="document" unicode="&#xe81e;" d="M735 850h-470c-83 0-147-65-147-147v-706c0-82 64-147 147-147h470c83 0 147 65 147 147v706c0 82-64 147-147 147z m89-853c0-47-42-88-89-88h-470c-47 0-88 41-88 88v706c0 47 41 88 88 88h470c47 0 89-41 89-88v-706z m-500 500h117c18 0 30 12 30 30v117c0 18-12 30-30 30h-117c-18 0-30-12-30-30v-117c0-18 12-30 30-30z m29 118h59v-59h-59v59z m324-177h-353c-18 0-30-11-30-29 0-18 12-30 30-30h353c17 0 29 12 29 30 0 18-12 29-29 29z m0-176h-353c-18 0-30-12-30-30 0-17 12-29 30-29h353c17 0 29 12 29 29 0 18-12 30-29 30z m0-177h-353c-18 0-30-11-30-29s12-29 30-29h353c17 0 29 11 29 29s-12 29-29 29z m0 530h-118c-18 0-30-12-30-30 0-17 12-29 30-29h118c17 0 29 12 29 29 0 18-12 30-29 30z" horiz-adv-x="1000" />

<glyph glyph-name="down-arrow" unicode="&#xe820;" d="M500 850c-276 0-500-223-500-500s224-500 500-500 500 224 500 500-223 500-500 500z m0-941c-241 0-441 200-441 441s200 441 441 441 441-200 441-441-200-441-441-441z m129 494l-111-112c-12-6-24-6-30 0l-111 112c-12 12-30 12-42 0-11-12-11-29 0-41l112-112c12-18 35-23 53-23 18 0 41 11 59 23l112 112c11 12 11 29 0 41-12 12-30 12-42 0z" horiz-adv-x="1000" />

<glyph glyph-name="dollar" unicode="&#xe821;" d="M500 850c-276 0-500-223-500-500s224-500 500-500 500 224 500 500-223 500-500 500z m0-941c-241 0-441 200-441 441s200 441 441 441 441-200 441-441-200-441-441-441z m124 547c0-18 11-29 29-29 18 0 29 11 29 29 0 69-66 123-153 133v26c0 17-11 29-29 29-18 0-29-12-29-29v-26c-87-10-153-64-153-133s66-123 153-133v-153c-52 9-94 39-94 74 0 18-12 30-30 30-18 0-29-12-29-30 0-69 66-123 153-133v-26c0-17 11-29 29-29 18 0 29 12 29 29v26c87 10 153 64 153 133s-66 123-153 133v153c52-9 95-39 95-74z m-247 0c0 35 42 65 94 74v-148c-52 9-94 39-94 74z m247-212c0-35-43-65-95-74v148c52-9 95-39 95-74z" horiz-adv-x="1000" />

<glyph glyph-name="down-arrow-1" unicode="&#xe823;" d="M989 575c-16 15-39 15-54 0l-354-354c-46-46-116-46-162 0l-354 354c-15 15-38 15-53 0s-16-38 0-54l353-354c39-30 85-53 139-53s100 23 131 53l354 354c15 16 15 39 0 54z" horiz-adv-x="1000" />

<glyph glyph-name="file-3" unicode="&#xe827;" d="M859 509l-318 318c-17 11-41 23-64 23h-212c-83 0-147-65-147-147v-706c0-82 64-147 147-147h470c83 0 147 65 147 147v447c0 24-5 47-23 65z m-330 247l259-259h-170c-47 0-89 41-89 88v171z m206-847h-470c-47 0-88 41-88 88v706c0 47 41 88 88 88h206v-206c0-82 64-147 147-147h206v-441c0-47-42-88-89-88z m-117 341h-89v88c0 18-11 30-29 30-18 0-29-12-29-30v-88h-89c-17 0-29-12-29-29 0-18 12-30 29-30h89v-88c0-18 11-29 29-29 18 0 29 11 29 29v88h89c17 0 29 12 29 30 0 17-12 29-29 29z" horiz-adv-x="1000" />

<glyph glyph-name="file-4" unicode="&#xe829;" d="M859 509l-318 318c-17 11-41 23-64 23h-212c-83 0-147-65-147-147v-706c0-82 64-147 147-147h470c83 0 147 65 147 147v447c0 24-5 47-23 65z m-330 247l259-259h-170c-47 0-89 41-89 88v171z m206-847h-470c-47 0-88 41-88 88v706c0 47 41 88 88 88h206v-206c0-82 64-147 147-147h206v-441c0-47-42-88-89-88z m-58 147h-353c-18 0-30-12-30-29 0-18 12-30 30-30h353c17 0 29 12 29 30 0 17-12 29-29 29z m0 147h-353c-18 0-30-12-30-29s12-30 30-30h353c17 0 29 12 29 30s-12 29-29 29z m0 147h-353c-18 0-30-12-30-29s12-30 30-30h353c17 0 29 12 29 30s-12 29-29 29z" horiz-adv-x="1000" />

<glyph glyph-name="envelope" unicode="&#xe82b;" d="M832 726h-664c-93 0-168-75-168-168v-416c0-93 75-168 168-168h664c94 0 168 75 168 168v416c0 93-74 168-168 168z m-658-68h665c53 0 100-45 104-98l-378-219c-31-19-93-19-130 0l-366 212c0 56 50 105 105 105z m-106-522v344l202-117-200-245c-1 6-2 12-2 18z m771-106h-665c-27 0-52 12-71 30l221 271 80-46c31-19 62-25 99-25s75 6 100 25l78 45 224-274c-19-16-42-26-66-26z m105 106c0-9-1-17-4-26l-205 252 209 121v-347z" horiz-adv-x="1000" />

<glyph glyph-name="download-2" unicode="&#xe82e;" d="M820 174c-15 14-37 14-52 0l-228-228v867c0 22-14 37-36 37-22 0-37-15-37-37v-875l-235 236c-15 14-37 14-52 0s-15-37 0-52l243-243c22-22 51-29 81-29 29 0 59 7 73 29l243 243c15 15 15 37 0 52z" horiz-adv-x="1000" />

<glyph glyph-name="fast-forward" unicode="&#xe831;" d="M947 448l-397 229c-39 23-84 23-115 0-30-23-53-61-53-99v-24l-214 123c-15 8-31 16-53 16-62 0-115-54-115-115v-458c0-61 53-114 115-114 15 0 38 7 53 15l221 128v-29c0-46 16-76 54-99 15-8 38-15 53-15s38 7 54 15l397 229c30 23 53 53 53 99 0 46-15 76-53 99z m-817-358c-23-16-54 0-54 30v458c0 23 23 38 39 38 7 0 15 0 15-7l397-229c15-8 15-23 15-31s0-23-15-30l-397-229z m778 229l-396-229c-16-8-31 0-39 0 0 0-15 7-15 30v68l107 62c30 23 53 53 53 99 0 46-15 76-53 99l-107 62v68c0 15 8 31 15 31s23 7 39 0l396-229c16-8 16-23 16-31s0-23-16-30z" horiz-adv-x="1000" />

<glyph glyph-name="file-1" unicode="&#xe832;" d="M882 468c0 10-4 17-10 23-4 6-8 12-13 18l-318 318c-5 3-10 6-16 9-5 9-13 14-25 14-3 0-6-1-9-2-5 1-10 2-14 2h-212c-83 0-147-65-147-147v-706c0-82 64-147 147-147h470c83 0 147 65 147 147v447c0 6 0 12-1 17 1 2 1 4 1 7z m-94 29h-170c-47 0-89 41-89 88v171l259-259z m-53-588h-470c-47 0-88 41-88 88v706c0 47 41 88 88 88h206v-206c0-82 64-147 147-147h206v-441c0-47-42-88-89-88z m-111 382l-159-159c0-5-6-5-12-5 0 0-6 0-12 5l-64 65c-12 12-30 12-42 0s-11-29 0-41l65-65c12-17 29-23 53-23 24 0 41 11 53 23l159 159c12 12 12 29 0 41s-30 12-41 0z" horiz-adv-x="1000" />

<glyph glyph-name="home" unicode="&#xe838;" d="M990 379l-442 341c-26 21-68 21-94 0l-441-341c-11-11-16-21-11-32s16-15 26-15h53c16 0 26-11 26-27v-262c0-42 37-79 79-79h630c42 0 79 37 79 79v262c0 16 11 27 26 27h53c10 0 21 5 26 15 0 11 0 27-10 32z m-410-357h-158v231c0 16 11 26 27 26h105c15 0 26-10 26-26v-231z m262 289v-263c0-16-10-26-26-26h-184v231c0 42-36 79-78 79h-105c-42 0-79-37-79-79v-231h-184c-16 0-26 10-26 26v263c0 31-27 63-58 73l383 300c11 5 21 5 32 0l383-300c-31-5-58-37-58-73z" horiz-adv-x="1000" />

<glyph glyph-name="id-card" unicode="&#xe83a;" d="M206 321h265c17 0 29 11 29 29 0 18-12 29-29 29h-265c-18 0-29-11-29-29 0-18 11-29 29-29z m0 147h265c17 0 29 11 29 29 0 18-12 30-29 30h-265c-18 0-29-12-29-30 0-18 11-29 29-29z m706 235h-824c-47 0-88-41-88-88v-530c0-47 41-88 88-88h824c47 0 88 41 88 88v530c0 47-41 88-88 88z m29-618c0-17-12-29-29-29h-824c-17 0-29 12-29 29v530c0 17 12 29 29 29h824c17 0 29-12 29-29v-530z m-147 147h-588c-18 0-29-11-29-29s11-29 29-29h588c18 0 30 11 30 29s-12 29-30 29z m0 306h-153c-17 0-29-11-29-29v-177c0-17 12-29 29-29h153c18 0 30 12 30 29v177c0 18-12 29-30 29z m-29-176h-94v117h94v-117z" horiz-adv-x="1000" />

<glyph glyph-name="list" unicode="&#xe841;" d="M404 715h555c25 0 41 17 41 41s-16 41-41 41h-555c-24 0-41-16-41-41 0-24 17-41 41-41z m555-326h-555c-24 0-41-16-41-41 0-24 17-41 41-41h555c25 0 41 17 41 41 0 24-16 41-41 41z m0-408h-555c-24 0-41-17-41-41s17-41 41-41h555c25 0 41 16 41 41s-16 41-41 41z m-816 849l-57-66-17 17c-16 16-40 16-57 0s-16-41 0-57l33-33c16-8 33-16 49-16s33 8 33 24l73 73c16 17 16 41 0 58s-41 16-57 0z m0-409l-57-65-17 16c-16 17-40 17-57 0s-16-40 0-57l33-32c16-8 33-17 49-17s33 9 33 25l73 73c16 17 16 41 0 57s-41 17-57 0z m0-408l-57-65-17 16c-16 17-40 17-57 0s-16-41 0-57l33-33c16-8 33-16 49-16s33 8 33 25l73 73c16 16 16 41 0 57s-41 17-57 0z" horiz-adv-x="1000" />

<glyph glyph-name="list-1" unicode="&#xe842;" d="M346 656h616c23 0 38 15 38 38s-15 39-38 39h-616c-23 0-38-16-38-39 0-23 15-38 38-38z m616-269h-616c-23 0-38-16-38-39 0-23 15-38 38-38h616c23 0 38 15 38 38 0 23-15 39-38 39z m0-347h-616c-23 0-38-15-38-38s15-39 38-39h616c23 0 38 16 38 39s-15 38-38 38z m-954 685c-8-8-8-23-8-31s0-15 8-23c7-7 23-15 31-15s23 8 23 15c7 0 15 16 15 23 0 16-8 23-15 31-16 15-39 15-54 0z m0-346c-8-8-8-23-8-31s0-15 8-23c7-8 23-15 31-15s23 7 23 15c7 0 15 15 15 23 0 16-8 23-15 31-16 15-39 15-54 0z m0-346c-8-8-8-23-8-31s0-16 8-23c7-8 23-16 31-16s23 8 23 16c7 0 15 15 15 23 0 15-8 23-15 31-16 15-39 15-54 0z" horiz-adv-x="1000" />

<glyph glyph-name="medal" unicode="&#xe845;" d="M840-23l-133 348 101 48c16 5 21 21 16 32l-43 116 43 116c5 10-6 26-16 32l-111 52-53 111c-5 16-21 21-32 16l-116-42-116 42c-10 5-26-5-32-16l-52-111-111-52c-16-6-21-22-16-32l42-116-42-116c-5-11 5-27 16-32l100-48-127-343c0-11 0-21 6-26 5-11 15-11 26-11l127 21 79-100c5-5 11-11 21-11h5c11 0 16 6 22 16l53 146 57-151c6-11 11-16 22-16h5c10 0 16 5 21 11l79 100 127-21c10 0 21 5 26 10 6 6 11 16 6 27z m-608 655l101 47c5 0 10 5 10 11l48 100 100-37c5 0 11 0 16 0l100 37 48-100c0-6 5-11 10-11l101-47-37-101c0-5 0-10 0-16l37-100-101-47c-5 0-10-6-10-11l-48-100-100 37c-5 0-5 0-11 0-5 0-5 0-5 0l-100-37-48 100c0 5-5 11-10 11l-101 47 37 100c0 6 0 11 0 16l-37 101z m180-703l-64 79c-5 11-15 11-26 11l-100-16 98 267 28-61c6-16 22-21 32-16l116 43 25-9-109-298z m259 95c-11 0-22-5-27-10l-63-80-57 156 44 119 44-16c6 0 6 0 11 0 5 0 16 6 21 16l30 63 97-264-100 16z" horiz-adv-x="1000" />

<glyph glyph-name="medal-1" unicode="&#xe846;" d="M637 316l188 493c0 12 0 23-6 29-6 6-12 12-24 12h-164c-12 0-24-6-30-18l-101-266-99 266c-6 12-17 18-29 18h-165c-12 0-17-6-23-12-6-11-12-17-6-29l187-493c-70-44-117-122-117-213 0-141 112-253 253-253s253 112 253 253c0 91-46 169-117 213z m11 475h100l-164-435h-100l164 435z m-294 0l114-308-48-127h-1l-165 435h100z m147-882c-106 0-194 88-194 194s88 194 194 194 194-88 194-194-88-194-194-194z" horiz-adv-x="1000" />

<glyph glyph-name="group" unicode="&#xe849;" d="M909 442c15 23 24 50 24 80 0 78-55 139-127 139s-128-61-128-139c0-30 9-57 24-80-21-7-40-20-55-36 2 11 3 22 3 33 0 94-67 167-150 167s-150-73-150-167c0-11 1-22 3-33-15 16-34 29-55 36 15 23 24 50 24 80 0 78-55 139-128 139s-127-61-127-139c0-30 9-57 24-80-52-18-91-68-91-125v-95c0-16 11-28 28-28s28 12 28 28v95c0 44 33 77 77 77h11c0 0 0 1 0 1 16-7 33-12 50-12 18 0 35 5 50 12v-1h12c44 0 77-33 77-77 0-1 1-2 1-3-41-30-67-77-67-131v-116c0-17 11-28 27-28 17 0 28 11 28 28v116c0 56 50 106 106 106h7c20-10 42-17 65-17s46 7 65 17h7c56 0 106-50 106-106v-116c0-17 11-28 28-28 16 0 27 11 27 28v116c0 54-26 101-67 131 0 1 1 2 1 3 0 44 33 77 78 77h11c0 0 0 1 0 1 15-7 32-12 50-12s34 5 50 12v-1h11c44 0 78-33 78-77v-95c0-16 11-28 27-28s28 12 28 28v95c0 57-39 107-91 125z m-787 80c0 45 34 84 72 84s73-39 73-84-34-83-73-83-72 39-72 83z m284-83c0 61 44 111 94 111s94-50 94-111-38-111-94-111-94 50-94 111z m327 83c0 45 34 84 73 84s72-39 72-84-34-83-72-83-73 39-73 83z" horiz-adv-x="1000" />

<glyph glyph-name="money" unicode="&#xe84c;" d="M389 100c78 0 139 61 139 139s-61 139-139 139-139-61-139-139 61-139 139-139z m0 222c44 0 83-39 83-83 0-45-39-83-83-83s-83 38-83 83c0 44 38 83 83 83z m583 361h-722c-17 0-28-11-28-27v-84h-83c-17 0-28-11-28-28v-83h-83c-17 0-28-11-28-28v-389c0-16 11-27 28-27h722c17 0 28 11 28 27v84h83c17 0 28 11 28 28v83h83c17 0 28 11 28 28v389c0 16-11 27-28 27z m-250-611h-666v334h666v-334z m111 111h-55v250c0 17-11 28-28 28h-583v56h666v-334z m111 111h-55v250c0 17-11 28-28 28h-583v56h666v-334z" horiz-adv-x="1000" />

<glyph glyph-name="garage" unicode="&#xe84e;" d="M990 379l-442 341c-26 21-68 21-94 0l-441-341c-11-11-16-21-11-32s16-15 26-15h53c16 0 26-11 26-27v-262c0-42 37-79 79-79h630c42 0 79 37 79 79v262c0 16 11 27 26 27h53c10 0 21 5 26 15 0 11 0 27-10 32z m-673-205h368v-52h-368v52z m5 53c12 30 41 52 74 52h210c33 0 62-22 74-52h-358z m-5-158h368v-47h-368v47z m525 242v-263c0-16-10-26-26-26h-79v178c0 74-57 132-131 132h-210c-74 0-131-58-131-132v-178h-79c-16 0-26 10-26 26v263c0 31-27 63-58 73l383 300c11 5 21 5 32 0l383-300c-31-5-58-37-58-73z" horiz-adv-x="1000" />

<glyph glyph-name="next" unicode="&#xe858;" d="M988 363l-200 200c-13 14-33 14-46 0-14-13-14-33 0-46l133-134h-473c-20 0-34-13-34-33 0-20 14-33 34-33h486l-146-147c-14-13-14-33 0-47 6-6 20-6 26-6 7 0 20 0 20 0l200 200c14 13 14 33 0 46z m-420-446h-400c-53 0-100 46-100 100v666c0 54 47 100 100 100h400c20 0 34 14 34 34s-14 33-34 33h-400c-93 0-166-73-166-167v-666c0-94 73-167 166-167h400c20 0 34 13 34 33s-14 34-34 34z" horiz-adv-x="1000" />

<glyph glyph-name="next-1" unicode="&#xe859;" d="M420 117l200 200c13 13 13 33 0 46l-200 200c-13 14-33 14-47 0s-13-33 0-46l134-134h-474c-20 0-33-13-33-33 0-20 13-33 33-33h487l-147-147c-13-13-13-33 0-47 7-6 20-6 27-6s20 0 20 0z m413 733h-400c-20 0-33-13-33-33s13-34 33-34h400c54 0 100-46 100-100v-666c0-54-46-100-100-100h-400c-20 0-33-14-33-34 0-20 13-33 33-33h400c94 0 167 73 167 167v666c0 94-73 167-167 167z" horiz-adv-x="1000" />

<glyph glyph-name="next-3" unicode="&#xe85a;" d="M500 850c-276 0-500-223-500-500s224-500 500-500 500 224 500 500-223 500-500 500z m0-941c-241 0-441 200-441 441s200 441 441 441 441-200 441-441-200-441-441-441z m-18 606c-11 12-29 12-41 0s-12-30 0-41l112-112c6-12 6-24 0-30l-112-111c-12-12-12-30 0-42 6-5 18-5 24-5 12 0 17 0 17 5l112 112c30 30 30 83 0 112l-112 112z" horiz-adv-x="1000" />

<glyph glyph-name="next-4" unicode="&#xe85b;" d="M683 483l-355 355c-15 16-38 16-54 0-15-15-15-38 0-54l355-355c47-46 47-116 0-162l-355-355c-15-16-15-39 0-54 8-8 23-8 31-8s23 0 23 0l355 355c31 39 54 85 54 139 0 54-15 101-54 139z" horiz-adv-x="1000" />

<glyph glyph-name="next-2" unicode="&#xe85c;" d="M967 426l-244 243c-14 15-37 15-51 0s-15-37 0-51l228-229h-863c-22 0-37-15-37-37 0-22 15-37 37-37h871l-236-236c-15-15-15-37 0-52 7-7 22-7 29-7 15 0 22 0 22 7l244 244c44 44 44 110 0 155z" horiz-adv-x="1000" />

<glyph glyph-name="next-5" unicode="&#xe85d;" d="M909 850c-27 0-45-18-45-45v-322l-582 340c-27 9-55 18-82 18-82 0-154-64-154-155v-681c0-82 63-155 154-155 27 0 55 0 82 18l582 340v-313c0-27 18-45 45-45 27 0 46 18 46 45v910c0 27-19 45-46 45z m-82-545l-591-346c-36-27-100 0-100 55v682c0 36 28 63 64 63 18 0 27 0 36 0l591-345c28-9 37-37 37-55 0-18-18-45-37-54z" horiz-adv-x="1000" />

<glyph glyph-name="notepad" unicode="&#xe85e;" d="M748 782h-94c-4 40-38 68-73 68h-168c-41 0-70-33-73-68h-88c-87 0-156-69-156-156v-621c0-87 69-155 156-155h497c86 0 155 68 155 155v621c0 87-69 156-156 156z m-341-13c0 7 6 13 12 13h168c6 0 12-6 12-13v-105c0-6-6-13-12-13h-168c-6 0-12 7-12 13v105z m435-764c0-49-44-93-94-93h-496c-50 0-94 44-94 93v621c0 50 44 94 94 94h87v-50c0-44 37-75 74-75h168c43 0 74 31 74 75v50h94c49 0 93-44 93-94l0-621v0z m-156 93h-372c-19 0-31-12-31-31s12-31 31-31h372c19 0 31 13 31 31s-12 31-31 31z m0 187h-372c-19 0-31-13-31-31 0-19 12-31 31-31h372c19 0 31 12 31 31 0 18-12 31-31 31z m0 186h-372c-19 0-31-12-31-31 0-19 12-31 31-31h372c19 0 31 12 31 31 0 19-12 31-31 31z" horiz-adv-x="1000" />

<glyph glyph-name="padlock" unicode="&#xe85f;" d="M841 428h-543v162c0 110 92 202 202 202s202-92 202-202c0-17 12-29 29-29s29 12 29 29c0 144-115 260-260 260s-260-116-260-260v-162h-81c-52 0-92-40-92-92v-394c0-52 40-92 92-92h682c52 0 93 40 93 92v394c0 52-41 92-93 92z m35-486c0-17-18-34-35-34h-682c-17 0-35 17-35 34v394c0 17 18 34 35 34h682c17 0 35-17 35-34v-394z m-347 182v84c0 18-12 29-29 29-17 0-29-11-29-29v-84c-4-3-8-5-11-8-12-12-18-23-18-41 0-17 6-28 18-40 11-12 23-17 40-17 17 0 29 5 41 17 11 12 17 23 17 40 0 18-6 29-17 41-4 3-8 5-12 8z" horiz-adv-x="1000" />

<glyph glyph-name="padlock-1" unicode="&#xe863;" d="M862 464h-86v110c0 153-123 276-276 276s-276-123-276-276v-110h-86c-55 0-98-43-98-99v-417c0-55 43-98 98-98h724c55 0 98 43 98 98v417c0 56-43 99-98 99z m-577 110c0 117 98 215 215 215s215-98 215-215v-110h-430v110z m614-626c0-18-19-37-37-37h-724c-18 0-37 19-37 37v417c0 19 19 37 37 37h724c18 0 37-18 37-37v-417z m-368 193v89c0 19-13 31-31 31-18 0-31-12-31-31v-89c-4-3-8-5-12-9-12-12-18-24-18-43 0-18 6-30 18-43 12-12 25-18 43-18 18 0 31 6 43 18 12 13 18 25 18 43 0 19-6 31-18 43-4 4-8 6-12 9z" horiz-adv-x="1000" />

<glyph glyph-name="placeholder" unicode="&#xe867;" d="M808 668c-60 116-182 182-309 182-66 0-133-22-188-55-166-100-215-326-116-497l232-404c17-27 44-44 72-44 28 0 55 17 72 44l237 415c0 5 0 5 0 5 67 111 61 243 0 354z m-49-332c0-5 0-5 0-5l-238-409c-5-17-17-17-22-17-6 0-17 6-22 17l-232 403c-89 144-44 337 94 420 49 28 105 44 160 44 110 0 210-60 260-149 55-94 55-210 0-304z m-260 288c-77 0-138-61-138-139s61-138 138-138 138 61 138 138-61 139-138 139z m0-221c-44 0-83 38-83 82 0 45 39 83 83 83 44 0 83-38 83-83 0-44-39-82-83-82z" horiz-adv-x="1000" />

<glyph glyph-name="play-button" unicode="&#xe868;" d="M876 483l-596 349c-28 9-55 18-83 18-82 0-156-64-156-156v-688c0-83 65-156 156-156 28 0 55 9 83 9l596 349c55 27 83 82 83 137 0 56-37 111-83 138z m-46-174l-596-349c-37-27-101 0-101 55v688c0 37 28 64 64 64 19 0 28 0 37 0l596-348c28-9 37-37 37-55 0-19-18-46-37-55z" horiz-adv-x="1000" />

<glyph glyph-name="plus" unicode="&#xe869;" d="M500 850c-276 0-500-223-500-500s224-500 500-500 500 224 500 500-223 500-500 500z m0-941c-241 0-441 200-441 441s200 441 441 441 441-200 441-441-200-441-441-441z m147 470h-118v118c0 18-11 30-29 30-18 0-29-12-29-30v-118h-118c-18 0-29-11-29-29 0-18 11-29 29-29h118v-118c0-18 11-29 29-29 18 0 29 11 29 29v118h118c18 0 30 11 30 29 0 18-12 29-30 29z" horiz-adv-x="1000" />

<glyph glyph-name="plus-1" unicode="&#xe86a;" d="M962 389h-423v423c0 23-16 38-39 38s-38-15-38-38v-423h-423c-24 0-39-16-39-39s15-38 39-38h423v-424c0-23 15-38 38-38s39 15 39 38v424h423c23 0 38 15 38 38s-15 39-38 39z" horiz-adv-x="1000" />

<glyph glyph-name="pound-sterling" unicode="&#xe86b;" d="M500 850c-276 0-500-223-500-500s224-500 500-500 500 224 500 500-223 500-500 500z m0-941c-241 0-441 200-441 441s200 441 441 441 441-200 441-441-200-441-441-441z m129 253c-17 6-35 0-41-18-6 0-17 0-41 12-35 18-70 18-100 12 6 47 0 94-6 141-1 14-2 27-3 41h103c18 0 30 12 30 29s-12 30-30 30h-107c0 34 4 67 19 94 12 24 35 41 59 47 35 6 70-12 76-18 12-11 30-11 41 0 12 12 12 30 0 42s-58 41-117 35c-35 0-77-18-112-77-22-38-29-80-28-123h-48c-18 0-30-12-30-30s12-29 30-29h51c2-18 5-35 7-53 6-65 18-129-5-170-6-12-6-30 5-36 12-6 24-6 36 0 6 0 53 36 100 12 23-12 47-18 64-18 12 0 18 0 30 6 23 6 35 24 35 30 6 17 0 35-18 41z" horiz-adv-x="1000" />

<glyph glyph-name="power-button" unicode="&#xe86c;" d="M722 720c-18 7-37 0-43-12-6-18 0-37 12-43 130-74 210-204 210-352 0-222-179-401-401-401s-401 179-401 401c0 148 80 284 210 352 12 12 18 31 12 43-12 12-31 19-43 12-148-86-241-240-241-407 0-253 210-463 463-463s463 210 463 463c0 173-93 327-241 407z m-222-240c19 0 31 12 31 31v308c0 19-12 31-31 31-18 0-31-12-31-31v-308c0-19 13-31 31-31z" horiz-adv-x="1000" />

<glyph glyph-name="previous" unicode="&#xe86d;" d="M500 850c-276 0-500-223-500-500s224-500 500-500 500 224 500 500-223 500-500 500z m0-941c-241 0-441 200-441 441s200 441 441 441 441-200 441-441-200-441-441-441z m53 565c12 11 12 29 0 41s-29 12-41 0l-112-112c-29-29-29-82 0-112l112-112c6-5 17-5 23-5 6 0 12 0 18 5 12 12 12 30 0 42l-112 111c-6 12-6 24 0 30l112 112z" horiz-adv-x="1000" />

<glyph glyph-name="push-pin" unicode="&#xe86f;" d="M970 535l-280 279c-36 43-103 43-146 0l-12-12c-18-18-30-48-30-73 0-24 12-54 30-73l-243-243c-91 43-207 24-280-49-12-12-12-30 0-42l207-207-183-182c-12-12-12-31 0-43 7-6 13-6 25-6s18 0 24 6l179 180 210-210c6 0 18-6 24-6 7 0 13 0 25 0 73 73 91 188 48 279l244 244c36-43 103-43 145 0l13 12c18 18 30 48 30 73 0 24-12 54-30 73z m-43-98l-12-12c-12-18-43-18-61 0l-24 25c-12 12-31 12-43 0l-285-286c-13-12-13-24-7-37 43-60 37-140-6-200l-413 413c61 43 140 49 201 6 12-6 24-6 36 6l286 286c12 12 12 30 0 43l-24 24c-7 6-13 18-13 30s6 25 13 31l12 12c12 18 42 18 60 0l280-280c6-6 12-18 12-30s-6-24-12-31z" horiz-adv-x="1000" />

<glyph glyph-name="question" unicode="&#xe870;" d="M524 615c-36 12-77 0-106-24-30-23-47-59-47-100 0-17 11-29 29-29 18 0 29 12 29 29 0 18 6 41 24 53 18 12 35 18 59 12 29-6 47-29 53-53 6-29 0-53-24-71-47-35-70-88-70-141 0-17 11-29 29-29 18 0 29 12 24 29 0 36 23 71 53 94 41 36 58 83 47 130-12 53-53 88-100 100z m-47-477c-6-6-6-17-6-23 0-6 0-12 6-18 5-6 17-12 23-12 6 0 18 6 18 12 6 0 11 12 11 18 0 12-5 17-11 23-12 12-30 12-41 0z m23 712c-276 0-500-223-500-500s224-500 500-500 500 224 500 500-223 500-500 500z m0-941c-241 0-441 200-441 441s200 441 441 441 441-200 441-441-200-441-441-441z" horiz-adv-x="1000" />

<glyph glyph-name="rewind" unicode="&#xe873;" d="M885 695c-16 0-39-7-54-15l-208-120v20c0 46-15 77-54 100s-77 23-115 0l-400-231c-31-23-54-54-54-100 0-46 15-77 54-100l400-231c15-7 38-15 54-15s38 8 54 15c30 23 53 62 53 100v25l216-125c15-7 31-15 54-15 61 0 115 54 115 115v462c0 61-54 115-115 115z m-339-577c0-15-7-30-15-30s-23-8-39 0l-400 230c-15 8-15 23-15 31s0 23 15 31l400 231c16 7 31 0 39 0 0 0 15-8 15-31v-64l-115-67c-31-23-54-54-54-100 0-46 15-77 54-100l115-66v-65z m377 0c0-30-31-46-54-30l-400 230c-15 8-15 23-15 31s0 23 15 31l400 231c0 7 8 7 16 7 15 0 38-15 38-38v-462z" horiz-adv-x="1000" />

<glyph glyph-name="smartphone" unicode="&#xe87d;" d="M653 850h-306c-76 0-141-65-141-141v-718c0-76 65-141 141-141h306c76 0 141 65 141 141v718c0 76-65 141-141 141z m82-859c0-47-35-82-82-82h-306c-47 0-82 35-82 82v718c0 47 35 82 82 82h306c47 0 82-35 82-82v-718z m-76 741h-318c-17 0-29-11-29-29v-588c0-18 12-30 29-30h318c18 0 29 12 29 30v588c0 18-11 29-29 29z m-30-588h-258v530h258v-530z m-170-106c-12-11-18-29-18-41s6-29 18-41c12-12 23-18 41-18 18 0 29 6 41 18 12 12 18 23 18 41 0 18-6 30-18 41-23 24-59 24-82 0z" horiz-adv-x="1000" />

<glyph glyph-name="speech-bubble" unicode="&#xe87e;" d="M852 495h-167v80c0 81-68 149-148 149h-389c-80 0-148-68-148-149v-302c0-25 19-49 43-62 13-6 19-6 31-6s31 6 43 19l62 49h136v-80c0-81 68-149 148-149h358l62-49c12-12 24-19 43-19 37 0 68 31 74 68v303c0 80-68 148-148 148z m-537-148v-12h-154c-7 0-13 0-19-7l-68-61h-6c-6 0-6 0-6 6v302c0 50 37 87 86 87h389c49 0 87-37 87-87v-80h-89c-1 8-5 14-10 19-13 12-31 12-43 0-5-5-9-13-11-19h-8c-80 0-148-68-148-148z m617-309c0-6-6-6-6-6l-74 62c-6 6-12 6-19 6h-370c-49 0-86 37-86 86v155c0 49 37 86 86 86h383c49 0 86-37 86-86v-303z m-457 241c-6 0-6-12-6-18 0-13 0-19 6-25 7-6 19-6 25-6 6 0 19 6 19 6 6 6 6 18 6 25 0 6 0 12-6 18-13 12-31 12-44 0z m155 0c-6 0-13-12-13-18 0-13 7-19 13-25 6-6 18-6 24-6 7 0 19 6 19 6 0 6 6 18 6 25 0 6 0 12-6 18-12 12-31 12-43 0z m154 0c-6 0-12-12-12-18 0-13 6-19 12-25 6-6 19-6 25-6 6 0 18 6 24 0 0 6 7 18 7 24 0 13-7 19-13 25-12 12-31 12-43 0z m-463 235c-6-7-6-19-6-25 0-12 0-19 6-25s19-6 25-6 18 6 18 6c6 6 13 19 13 25 0 12-7 18-13 25-12 12-31 12-43 0z m-154 0c-6-7-6-19-6-25 0-12 0-19 6-25s18-6 24-6 19 6 19 6c6 6 12 19 12 25 0 12-6 18-12 25-12 12-31 12-43 0z" horiz-adv-x="1000" />

<glyph glyph-name="speech-bubble-1" unicode="&#xe881;" d="M794 727h-588c-112 0-206-95-206-206v-236c0-111 94-206 206-206h553l94-82c18-18 35-24 59-24 47 0 88 42 88 89v459c0 111-94 206-206 206z m147-665c0-30-29-41-47-24l-106 94c-6 6-11 6-17 6h-565c-82 0-147 65-147 147v236c0 82 65 147 147 147h588c83 0 147-65 147-147l0-459z m-706 359c-6-6-11-18-11-30s5-23 11-29c6-6 18-12 30-12s23 6 35 12c6 6 12 17 12 29s-6 24-12 30c-18 17-47 17-65 0z m236 0c-6-6-12-18-12-30s6-23 12-29c6-6 17-12 29-12s24 6 35 12c6 6 12 17 12 29s-6 24-12 30c-17 17-47 17-64 0z m235 0c-6-6-12-18-12-30s6-23 12-29c6-6 18-12 29-12s24 6 36 12c6 6 11 17 11 29s-5 24-11 30c-18 17-47 17-65 0z" horiz-adv-x="1000" />

<glyph glyph-name="telephone" unicode="&#xe88d;" d="M965 144l-82 82c-42 41-112 41-153 0l-35-35c-12-12-30-12-42 0-52 41-123 111-164 152-41 36-112 112-153 165-6 12-11 29 0 41l35 35c18 18 30 47 30 77s-12 58-30 76l-82 82c-41 41-111 41-152 0-136-141-171-293-83-411 88-123 165-206 235-276s153-147 276-235c41-29 94-47 147-47 88 0 176 47 253 141 17 18 29 47 29 76s-12 59-29 77z m-30-124c-117-117-240-141-334-76-124 88-200 159-271 229-70 71-141 147-229 270-64 94-41 218 77 335 11 6 23 12 35 12s23-6 41-18l82-82c6-12 12-24 12-35s0-24-12-35l-35-36c-29-29-29-76 0-117 41-53 117-129 159-171 41-41 111-117 170-158 41-30 88-30 117 0l36 35c17 18 53 18 70 0l82-82c6-12 12-24 12-35s0-24-12-36z" horiz-adv-x="1000" />

<glyph glyph-name="tie" unicode="&#xe88e;" d="M691 668l30 94c6 17 0 41-12 59s-30 29-53 29h-306c-23 0-35-12-53-29s-18-42-12-59l30-94c14-47 54-82 99-95l-135-564c-5-12 0-24 12-30l188-123c6-6 12-6 18-6 6 0 12 0 18 6l188 123c12 6 12 18 12 30l-134 564c48 11 87 43 110 95z m-170-100l30-129-144-144 61 273h53z m-138-378c1 1 2 1 2 1l181 181 31-128-239-239-14 10 39 175z m114-281l-90 62 205 206 38-162-153-106z m147 870l-29-94c-6-35-41-58-77-58h-94c-35 0-65 23-76 58l-30 94c0 0 0 0 6 6h294c6 0 6 0 6 0l0-6z" horiz-adv-x="1000" />

<glyph glyph-name="truck" unicode="&#xe88f;" d="M868 692h-421c-62 0-113-42-127-100h-78c-79 0-147-47-174-116l-63-158c-5-10-5-15-5-26v-100c0-34 24-64 55-74 10-63 63-110 129-110 65 0 117 45 129 105h29 292c12-60 65-105 129-105s117 45 129 105h29c42 0 79 37 79 79v369c0 73-58 131-132 131z m-684-631c-42 0-79 36-79 79 0 42 37 78 79 78s79-36 79-78c0-43-37-79-79-79z m0 210c-57 0-105-35-123-86-2 4-3 8-3 12v100l63 158c21 53 69 85 121 85h74v-374h-3c-12 61-64 105-129 105z m579-210c-42 0-79 36-79 79 0 42 37 78 79 78 42 0 79-36 79-78 0-43-37-79-79-79z m184 131c0-16-10-26-26-26h-29c-12 61-64 105-129 105s-117-44-129-105h-266v395c0 42 37 79 79 79h421c43 0 79-37 79-79v-369z" horiz-adv-x="1000" />

<glyph glyph-name="umbrella" unicode="&#xe890;" d="M529 784v37c0 17-11 29-29 29s-29-12-29-29v-37c-263-15-471-220-471-463 0-18 12-30 29-30s30 12 30 30c0 35 29 64 65 64s64-29 64-64c0-18 12-30 30-30s29 12 29 30c0 35 30 64 65 64s65-29 65-64c0-18 11-30 29-30 18 0 29 12 29 30 0 25 16 47 38 57-2-3-2-6-2-10v-418c0-24-18-41-42-41-23 0-41 17-41 41v53c0 18-11 29-29 29-18 0-30-11-30-29v-53c0-53 48-100 100-100 53 0 100 47 100 100v418c0 4 0 7-1 10 21-10 37-32 37-57 0-18 12-30 29-30 18 0 30 12 30 30 0 35 29 64 64 64 36 0 65-29 65-64 0-18 12-30 29-30s30 12 30 30c0 35 29 64 65 64s64-29 64-64c0-18 12-30 30-30s29 12 29 30c0 249-208 449-471 463z m348-340c-36 0-71-12-95-41-23 24-58 41-94 41-35 0-70-12-94-41-23 24-59 41-94 41s-71-12-94-41c-24 24-59 41-94 41s-71-12-94-41c-24 24-59 41-94 41-17 0-32-3-47-8 55 167 225 291 423 291s368-124 423-291c-14 5-30 8-46 8z" horiz-adv-x="1000" />

<glyph glyph-name="undo" unicode="&#xe891;" d="M559 791c-213 0-389-147-431-346l-67 113c-13 19-32 19-45 13-19-13-19-32-12-44l120-196c6-6 12-12 19-12h6c6 0 12 0 19-7l195 120c19 13 19 32 13 44-13 19-32 19-44 13l-148-88c26 184 184 327 375 327 208 0 378-170 378-378s-170-378-378-378c-19 0-32-13-32-32s13-31 32-31c246 0 441 195 441 441 0 246-195 441-441 441z" horiz-adv-x="1000" />

<glyph glyph-name="upload-1" unicode="&#xe895;" d="M327 592l140 140v-480c0-20 13-34 33-34 20 0 33 14 33 34v480l140-140c7-7 20-7 27-7 7 0 20 0 27 7 13 13 13 33 0 46l-200 200c-14 14-34 14-47 0l-200-200c-13-13-13-33 0-46 13-14 33-14 47 0z m640-407c-20 0-34-13-34-33v-134c0-53-46-100-100-100h-666c-54 0-100 47-100 100v134c0 20-14 33-34 33s-33-13-33-33v-134c0-93 73-166 167-166h666c94 0 167 73 167 166v134c0 20-13 33-33 33z" horiz-adv-x="1000" />

<glyph glyph-name="upload-2" unicode="&#xe897;" d="M821 573l-243 244c-45 44-111 44-155 0l-244-244c-15-14-15-37 0-51s37-15 52 0l236 236v-871c0-22 15-37 37-37 22 0 37 22 37 37v863l228-228c8-8 23-8 30-8 7 0 22 8 22 8 15 14 15 37 0 51z" horiz-adv-x="1000" />

<glyph glyph-name="user-1" unicode="&#xe898;" d="M680 379c42 50 68 117 68 192 0 155-111 279-248 279s-248-124-248-279c0-75 26-142 68-192-126-24-224-136-224-268v-211c0-19 13-31 31-31s31 12 31 31v211c0 118 94 211 212 211h18c2-1 4-2 5-3-5-12-11-29-5-40l13-44c7-18 21-33 38-43l-57-249c-6-12 0-25 12-31l87-56c7-6 13-6 19-6 6 0 12 0 19 6l87 56c12 6 12 19 12 31l-56 248c17 10 33 26 44 44l12 44c6 12 0 31-6 43h18c118 0 212-93 212-211v-211c0-19 12-31 31-31 18 0 31 12 31 31v211c0 132-98 244-224 268z m-143-125c0-6-12-13-18-13h-44c-6 0-18 7-18 13l-7 25h94l-7-25z m-37 534c106 0 186-99 186-217s-80-218-186-218-186 100-186 218 80 217 186 217z m0-876l-50 37 50 224 50-224-50-37z" horiz-adv-x="1000" />

<glyph glyph-name="user-2" unicode="&#xe899;" d="M681 371c42 51 69 119 69 194 0 158-114 285-253 285s-253-127-253-285c0-76 26-144 69-195-128-24-228-139-228-273v-215c0-19 13-32 32-32s32 13 32 32v215c0 120 95 215 215 215h19c35-19 73-32 114-32 41 0 79 13 114 32 0 0 0 0 0 0h19c120 0 215-95 215-215v-215c0-19 13-32 32-32 19 0 31 13 38 32v215c0 136-103 252-234 274z m-374 194c0 120 82 222 190 222s190-102 190-222-83-221-190-221-190 101-190 221z" horiz-adv-x="1000" />

<glyph glyph-name="wallet" unicode="&#xe89a;" d="M952 479v130c0 83-65 149-148 149h-655c-83 0-149-66-149-149v-518c0-83 66-149 149-149h655c83 0 148 66 148 149v124c28 19 48 50 48 84v96c0 34-20 66-48 84z m-11-180c0-23-18-41-42-41h-304c-24 0-41 18-41 41v96c0 24 17 41 41 41h304c24 0 42-17 42-41v-96z m-137-297h-655c-48 0-89 42-89 89v518c0 48 41 89 89 89h655c47 0 89-41 89-89v-113h-298c-53 0-101-48-101-101v-96c0-53 48-101 101-101h298v-107c0-47-42-89-89-89z m-203 369c-6-6-6-18-6-24 0-6 0-12 6-18 6-6 18-12 24-12 6 0 12 6 18 12 6 0 12 12 12 18 0 12-6 18-12 24-12 12-30 12-42 0z" horiz-adv-x="1000" />

<glyph glyph-name="yen" unicode="&#xe8a1;" d="M659 421c18 0 29 11 29 29 0 18-11 29-29 29h-88l53 53c11 12 11 30 0 42s-30 11-42 0l-88-89-88 89c-12 11-29 11-41 0s-12-30 0-42l56-53h-80c-17 0-29-11-29-29 0-18 12-29 29-29h130v-94h-130c-17 0-29-12-29-30 0-18 12-29 29-29h130v-130c0-17 11-29 29-29 18 0 29 12 29 29v130h130c18 0 29 11 29 29 0 18-11 30-29 30h-130v94h130z m-159 429c-276 0-500-223-500-500s224-500 500-500 500 224 500 500-223 500-500 500z m0-941c-241 0-441 200-441 441s200 441 441 441 441-200 441-441-200-441-441-441z" horiz-adv-x="1000" />

<glyph glyph-name="zoom-in" unicode="&#xe8a2;" d="M989-91l-298 298c57 68 92 156 92 250 0 213-178 391-391 391s-392-178-392-391 178-392 392-392c92 0 178 34 245 89l295-295c8-7 15-7 29-7s21 0 28 7c15 14 15 35 0 50z m-597 228c-178 0-321 142-321 320s143 320 321 320 320-142 320-320-143-320-320-320z m106 355h-71v72c0 21-14 35-35 35-22 0-36-14-36-35v-72h-71c-22 0-36-14-36-35s14-36 36-36h71v-71c0-21 14-36 36-36 21 0 35 15 35 36v71h71c22 0 36 14 36 36 0 21-14 35-36 35z" horiz-adv-x="1000" />

<glyph glyph-name="zoom-out" unicode="&#xe8a3;" d="M989-91l-298 298c57 68 92 156 92 250 0 213-178 391-391 391s-392-178-392-391 178-392 392-392c92 0 178 34 245 89l295-295c8-7 15-7 29-7s21 0 28 7c15 14 15 35 0 50z m-597 228c-178 0-321 142-321 320s143 320 321 320 320-142 320-320-143-320-320-320z m106 355h-213c-22 0-36-14-36-35s14-36 36-36h213c22 0 36 14 36 36 0 21-14 35-36 35z" horiz-adv-x="1000" />

<glyph glyph-name="agenda" unicode="&#xe8a4;" d="M771 850h-483c-76 0-141-65-141-141v-94h-29c-18 0-30-12-30-30 0-17 12-29 30-29h29v-100h-29c-18 0-30-12-30-29 0-18 12-30 30-30h29v-94h-29c-18 0-30-12-30-29 0-18 12-30 30-30h29v-100h-29c-18 0-30-12-30-29s12-30 30-30h29v-94c0-76 65-141 141-141h483c76 0 141 65 141 141v718c0 76-65 141-141 141z m-565-859v94h29c18 0 30 12 30 30 0 17-12 29-30 29h-29v100h29c18 0 30 12 30 30 0 17-12 29-30 29h-29v94h29c18 0 30 12 30 30s-12 29-30 29h-29v100h29c18 0 30 12 30 29 0 18-12 30-30 30h-29v94c0 47 35 82 82 82v-882c-47 0-82 35-82 82z m647 0c0-47-35-82-82-82h-424v882c91 0 424 0 424 0 47 0 82-35 82-82v-718z m-181 374c10 18 16 39 16 62 0 64-47 117-106 117s-105-53-105-117c0-24 6-46 17-65-37-17-65-54-65-100v-71c0-17 12-29 30-29s29 12 29 29v71c0 29 24 53 53 53h6v1c11-4 23-7 35-7 15 0 29 3 42 9v-3h5c30 0 53-24 53-53v-71c0-17 12-29 30-29 17 0 29 12 29 29v71c0 45-27 86-69 103z m-90-3c-23 0-47 23-47 59s24 58 47 58c30 0 47-23 47-58 0-36-23-59-47-59z" horiz-adv-x="1000" />

<glyph glyph-name="alarm-clock" unicode="&#xe8a6;" d="M904 314c0 222-179 402-402 402s-401-180-401-402c0-120 53-228 137-301l-94-94c-12-12-12-31 0-43 7-6 13-6 25-6s19 0 25 6l97 97c62-38 134-60 211-60 77 0 147 21 208 58l95-95c6-6 12-6 25-6 12 0 18 0 24 6 13 12 13 31 0 43l-90 91c85 73 140 182 140 304z m-741 0c0 185 154 340 340 340s339-155 339-340-154-339-339-339-340 154-340 339z m481 31h-80c-18 0-31 12-31 31v111c0 19-12 31-31 31-18 0-30-12-30-31v-111c0-49 43-93 92-93h80c13 0 31 13 31 31 0 19-12 31-31 31z m352 278c-49 80-117 148-197 197-19 7-37 0-43-12-7-18 0-37 12-43 74-37 136-99 179-173 6-6 12-12 25-12 6 0 12 0 12 0 19 12 19 31 12 43z m-765 148c18 12 18 31 12 43-12 19-31 19-43 13-80-50-148-118-198-198-6-12 0-37 13-43 6-6 12-6 18-6s19 6 19 18c43 68 105 130 179 173z" horiz-adv-x="1000" />

<glyph glyph-name="attachment-2" unicode="&#xe8a9;" d="M917 703c-118 117-305 111-416 0l-439-440c-83-82-83-211 0-293 41-41 93-58 146-58s105 23 141 64l398 399c47 46 47 117 0 164-47 46-117 46-164 0l-275-276c-12-11-12-29 0-41s29-11 41 0l275 276c23 23 58 23 82 0 23-24 23-59 0-82l-398-399c-53-58-147-58-205 0-59 53-59 147 0 205l439 440c93 93 240 93 334 0s93-241 0-334l-317-317c-11-11-11-29 0-41 12-11 30-11 41 0l317 317c111 117 111 304 0 416z" horiz-adv-x="1000" />

<glyph glyph-name="back" unicode="&#xe8aa;" d="M963 389h-864l227 227c15 14 15 36 0 51-15 15-37 15-51 0l-242-242c-44-44-44-110 0-154l242-241c7-8 22-8 29-8s15 0 22 8c15 14 15 36 0 51l-234 234h871c15 0 37 15 37 37 0 22-15 37-37 37z" horiz-adv-x="1000" />

<glyph glyph-name="download-1" unicode="&#xe8ab;" d="M473 223c7-6 20-6 27-6s20 0 13 6l200 200c14 14 14 34 0 47-13 13-33 13-46 0l-134-133v480c0 20-13 33-33 33-20 0-33-13-33-33v-494l-147 147c-13 13-33 13-47 0-13-13-13-33 0-47l200-200 0 0z m494-40c-20 0-34-13-34-33v-133c0-54-46-100-100-100h-666c-54 0-100 46-100 100v133c0 20-14 33-34 33s-33-13-33-33v-133c0-94 73-167 167-167h666c94 0 167 73 167 167v133c0 20-13 33-33 33l0 0z" horiz-adv-x="1000" />
</font>
</defs>
</svg>
